<svg width="512" height="512" viewBox="0 0 512 512" fill="none" xmlns="http://www.w3.org/2000/svg">
<path d="M424.039 352C452.882 391.676 444.082 447.209 404.384 476.034C364.686 504.861 309.123 496.066 280.282 456.39C251.439 416.713 326.343 445.704 366.041 416.878C405.739 388.051 395.198 312.323 424.039 352Z" fill="#9900FF"/>
<path d="M107.235 476.034C67.5374 447.209 58.7371 391.676 87.5793 352C116.421 312.323 100.883 407.808 140.581 436.635C180.279 465.46 260.179 416.713 231.338 456.39C202.496 496.066 146.933 504.861 107.235 476.034Z" fill="#9900FF"/>
<path fill-rule="evenodd" clip-rule="evenodd" d="M359 108.799C359 59.7567 329.351 41 280.282 41C231.212 41 166.818 59.7567 166.818 108.799C166.818 157.841 214.93 94 264 94C313.07 94 359 157.841 359 108.799ZM495.898 194.055C480.735 147.414 430.612 121.888 383.943 137.043C337.277 152.198 408.876 172.669 424.039 219.311C439.202 265.952 392.186 321.103 438.855 305.948C485.522 290.793 511.061 240.698 495.898 194.055Z" fill="#2F80ED"/>
<path d="M15.3725 194.055C30.5357 147.414 80.6593 121.888 127.327 137.043C173.995 152.198 102.743 172.669 87.5793 219.311C72.4161 265.952 119.084 321.103 72.4161 305.948C25.7485 290.793 0.209305 240.698 15.3725 194.055Z" fill="#2F80ED"/>
<path d="M330.464 364.467C343.275 382.091 339.367 406.757 321.733 419.561C304.1 432.365 279.42 428.459 266.61 410.835C253.798 393.212 282.367 389.803 300 377C317.633 364.195 317.653 346.844 330.464 364.467Z" fill="#9900FF"/>
<path d="M189.746 419.561C172.113 406.757 168.204 382.091 181.015 364.467C193.826 346.844 213.367 364.195 231 377C248.633 389.803 257.681 393.212 244.87 410.835C232.059 428.459 207.379 432.365 189.746 419.561Z" fill="#9900FF"/>
<path fill-rule="evenodd" clip-rule="evenodd" d="M255.676 217C277.471 217 294 247.205 294 268.988C294 277.157 287.091 273.716 279.024 269.699C265.58 263.004 248.922 254.708 255.676 295.885C233.88 295.885 220 278.226 220 256.443C220 234.659 233.88 217 255.676 217Z" fill="#00FF1E"/>
<path d="M167 295.885C173.735 275.168 177.941 262.257 198.67 268.988C219.399 275.72 219.735 299.283 213 320C206.265 340.717 195.009 350.744 174.28 344.012C153.551 337.281 160.265 316.603 167 295.885Z" fill="#2F80ED"/>
<path d="M330.464 269.699C351.193 262.967 352.265 290.283 359 311C365.735 331.718 342.462 337.281 321.733 344.012C315.152 336.289 315.735 340.717 309 320C309 304 309.735 276.431 330.464 269.699Z" fill="#2F80ED"/>
</svg>
